<mxfile host="Electron" modified="2023-06-04T20:52:02.508Z" agent="Mozilla/5.0 (Windows NT 10.0; Win64; x64) AppleWebKit/537.36 (KHTML, like Gecko) draw.io/21.2.8 Chrome/112.0.5615.165 Electron/24.2.0 Safari/537.36" etag="MSk4Qv35q4ljGHbICBiz" version="21.2.8" type="device">
  <diagram name="PÃ¡gina-1" id="NGcIurIkTgZHVNJdL5By">
    <mxGraphModel dx="1877" dy="629" grid="1" gridSize="10" guides="1" tooltips="1" connect="1" arrows="1" fold="1" page="1" pageScale="1" pageWidth="827" pageHeight="1169" math="0" shadow="0">
      <root>
        <mxCell id="0" />
        <mxCell id="1" parent="0" />
        <mxCell id="NRPAvcOG6aAH4Mc26yKC-1" value="&lt;font style=&quot;font-size: 18px;&quot;&gt;&lt;u&gt;:Sistema&lt;/u&gt;&lt;/font&gt;" style="rounded=0;whiteSpace=wrap;html=1;" parent="1" vertex="1">
          <mxGeometry x="210" y="170" width="120" height="60" as="geometry" />
        </mxCell>
        <mxCell id="NRPAvcOG6aAH4Mc26yKC-2" value="" style="endArrow=none;html=1;rounded=0;entryX=0;entryY=0.5;entryDx=0;entryDy=0;" parent="1" target="NRPAvcOG6aAH4Mc26yKC-1" edge="1">
          <mxGeometry width="50" height="50" relative="1" as="geometry">
            <mxPoint x="-80" y="200" as="sourcePoint" />
            <mxPoint x="430" y="270" as="targetPoint" />
          </mxGeometry>
        </mxCell>
        <mxCell id="NRPAvcOG6aAH4Mc26yKC-3" value="&lt;font style=&quot;font-size: 14px;&quot;&gt;seleccionarEstudianteyFecha(ci: String, fecha: Date): Bool&lt;/font&gt;" style="text;html=1;strokeColor=none;fillColor=none;align=center;verticalAlign=middle;whiteSpace=wrap;rounded=0;" parent="1" vertex="1">
          <mxGeometry x="-170" y="140" width="370" height="30" as="geometry" />
        </mxCell>
        <mxCell id="NRPAvcOG6aAH4Mc26yKC-4" value="" style="endArrow=classic;html=1;rounded=0;" parent="1" edge="1">
          <mxGeometry width="50" height="50" relative="1" as="geometry">
            <mxPoint x="10" y="180" as="sourcePoint" />
            <mxPoint x="100" y="180" as="targetPoint" />
          </mxGeometry>
        </mxCell>
        <mxCell id="NRPAvcOG6aAH4Mc26yKC-6" value="" style="endArrow=none;html=1;rounded=0;exitX=1;exitY=0.5;exitDx=0;exitDy=0;entryX=0;entryY=0.5;entryDx=0;entryDy=0;" parent="1" source="NRPAvcOG6aAH4Mc26yKC-1" edge="1">
          <mxGeometry width="50" height="50" relative="1" as="geometry">
            <mxPoint x="370" y="300" as="sourcePoint" />
            <mxPoint x="670" y="200" as="targetPoint" />
            <Array as="points" />
          </mxGeometry>
        </mxCell>
        <mxCell id="NRPAvcOG6aAH4Mc26yKC-7" value="&lt;font style=&quot;font-size: 14px;&quot;&gt;2 : e := find(ci : String)&lt;/font&gt;" style="text;html=1;align=center;verticalAlign=middle;resizable=0;points=[];autosize=1;strokeColor=none;fillColor=none;" parent="1" vertex="1">
          <mxGeometry x="424" y="290" width="160" height="30" as="geometry" />
        </mxCell>
        <mxCell id="NRPAvcOG6aAH4Mc26yKC-9" value="" style="endArrow=classic;html=1;rounded=0;" parent="1" edge="1">
          <mxGeometry width="50" height="50" relative="1" as="geometry">
            <mxPoint x="459" y="180" as="sourcePoint" />
            <mxPoint x="549" y="180" as="targetPoint" />
          </mxGeometry>
        </mxCell>
        <mxCell id="NRPAvcOG6aAH4Mc26yKC-10" value="" style="rounded=0;whiteSpace=wrap;html=1;" parent="1" vertex="1">
          <mxGeometry x="210" y="550" width="130" height="60" as="geometry" />
        </mxCell>
        <mxCell id="NRPAvcOG6aAH4Mc26yKC-11" value="&lt;span style=&quot;font-size: 18px;&quot;&gt;&lt;u&gt;:Postulacion&lt;/u&gt;&lt;/span&gt;" style="rounded=0;whiteSpace=wrap;html=1;" parent="1" vertex="1">
          <mxGeometry x="200" y="560" width="130" height="60" as="geometry" />
        </mxCell>
        <mxCell id="NRPAvcOG6aAH4Mc26yKC-15" value="&lt;font style=&quot;font-size: 18px;&quot;&gt;&lt;u&gt;o:OfertaLaboral&lt;/u&gt;&lt;/font&gt;" style="rounded=0;whiteSpace=wrap;html=1;" parent="1" vertex="1">
          <mxGeometry x="660" y="170" width="140" height="60" as="geometry" />
        </mxCell>
        <mxCell id="w0jpCwDrPkgtgDR7SLwA-1" value="&lt;font style=&quot;font-size: 14px;&quot;&gt;1 : num := getNumero() : String&lt;/font&gt;" style="text;html=1;strokeColor=none;fillColor=none;align=center;verticalAlign=middle;whiteSpace=wrap;rounded=0;" parent="1" vertex="1">
          <mxGeometry x="319" y="140" width="370" height="30" as="geometry" />
        </mxCell>
        <mxCell id="w0jpCwDrPkgtgDR7SLwA-6" value="" style="endArrow=classic;html=1;rounded=0;" parent="1" edge="1">
          <mxGeometry width="50" height="50" relative="1" as="geometry">
            <mxPoint x="558.5" y="560" as="sourcePoint" />
            <mxPoint x="449.5" y="560" as="targetPoint" />
          </mxGeometry>
        </mxCell>
        <mxCell id="w0jpCwDrPkgtgDR7SLwA-7" value="" style="endArrow=none;html=1;rounded=0;entryX=0.75;entryY=1;entryDx=0;entryDy=0;" parent="1" target="NRPAvcOG6aAH4Mc26yKC-1" edge="1">
          <mxGeometry width="50" height="50" relative="1" as="geometry">
            <mxPoint x="670" y="340" as="sourcePoint" />
            <mxPoint x="520" y="360" as="targetPoint" />
            <Array as="points">
              <mxPoint x="300" y="340" />
            </Array>
          </mxGeometry>
        </mxCell>
        <mxCell id="w0jpCwDrPkgtgDR7SLwA-8" value="" style="rounded=0;whiteSpace=wrap;html=1;" parent="1" vertex="1">
          <mxGeometry x="680" y="300" width="130" height="60" as="geometry" />
        </mxCell>
        <mxCell id="w0jpCwDrPkgtgDR7SLwA-9" value="&lt;span style=&quot;font-size: 18px;&quot;&gt;&lt;u&gt;:Estudiante&lt;/u&gt;&lt;/span&gt;" style="rounded=0;whiteSpace=wrap;html=1;" parent="1" vertex="1">
          <mxGeometry x="670" y="310" width="130" height="60" as="geometry" />
        </mxCell>
        <mxCell id="w0jpCwDrPkgtgDR7SLwA-10" value="" style="endArrow=none;html=1;rounded=0;entryX=0.5;entryY=1;entryDx=0;entryDy=0;" parent="1" target="NRPAvcOG6aAH4Mc26yKC-1" edge="1">
          <mxGeometry width="50" height="50" relative="1" as="geometry">
            <mxPoint x="670" y="450" as="sourcePoint" />
            <mxPoint x="480" y="350" as="targetPoint" />
            <Array as="points">
              <mxPoint x="270" y="450" />
            </Array>
          </mxGeometry>
        </mxCell>
        <mxCell id="w0jpCwDrPkgtgDR7SLwA-11" value="&lt;span style=&quot;font-size: 18px;&quot;&gt;&lt;u&gt;e:Estudiante&lt;/u&gt;&lt;/span&gt;" style="rounded=0;whiteSpace=wrap;html=1;" parent="1" vertex="1">
          <mxGeometry x="670" y="420" width="130" height="60" as="geometry" />
        </mxCell>
        <mxCell id="w0jpCwDrPkgtgDR7SLwA-12" value="" style="endArrow=classic;html=1;rounded=0;" parent="1" edge="1">
          <mxGeometry width="50" height="50" relative="1" as="geometry">
            <mxPoint x="459" y="329.5" as="sourcePoint" />
            <mxPoint x="549" y="329.5" as="targetPoint" />
          </mxGeometry>
        </mxCell>
        <mxCell id="w0jpCwDrPkgtgDR7SLwA-13" value="&lt;font style=&quot;font-size: 14px;&quot;&gt;3 : crearEntrevista(num : String, fecha : Date) : Bool&lt;/font&gt;" style="text;html=1;strokeColor=none;fillColor=none;align=center;verticalAlign=middle;whiteSpace=wrap;rounded=0;" parent="1" vertex="1">
          <mxGeometry x="290" y="390" width="370" height="30" as="geometry" />
        </mxCell>
        <mxCell id="w0jpCwDrPkgtgDR7SLwA-14" value="" style="endArrow=classic;html=1;rounded=0;" parent="1" edge="1">
          <mxGeometry width="50" height="50" relative="1" as="geometry">
            <mxPoint x="430" y="430" as="sourcePoint" />
            <mxPoint x="520" y="430" as="targetPoint" />
          </mxGeometry>
        </mxCell>
        <mxCell id="w0jpCwDrPkgtgDR7SLwA-15" value="" style="endArrow=none;html=1;rounded=0;entryX=0.25;entryY=1;entryDx=0;entryDy=0;exitX=1;exitY=0.5;exitDx=0;exitDy=0;" parent="1" source="NRPAvcOG6aAH4Mc26yKC-10" target="w0jpCwDrPkgtgDR7SLwA-11" edge="1">
          <mxGeometry width="50" height="50" relative="1" as="geometry">
            <mxPoint x="460" y="450" as="sourcePoint" />
            <mxPoint x="510" y="400" as="targetPoint" />
            <Array as="points">
              <mxPoint x="703" y="580" />
            </Array>
          </mxGeometry>
        </mxCell>
        <mxCell id="w0jpCwDrPkgtgDR7SLwA-16" value="&lt;font style=&quot;font-size: 14px;&quot;&gt;3.1 : p := find(num : String)&lt;/font&gt;" style="text;html=1;align=center;verticalAlign=middle;resizable=0;points=[];autosize=1;strokeColor=none;fillColor=none;" parent="1" vertex="1">
          <mxGeometry x="399" y="520" width="190" height="30" as="geometry" />
        </mxCell>
        <mxCell id="w0jpCwDrPkgtgDR7SLwA-18" value="&lt;span style=&quot;font-size: 18px;&quot;&gt;&lt;u&gt;p:Postulacion&lt;/u&gt;&lt;/span&gt;" style="rounded=0;whiteSpace=wrap;html=1;" parent="1" vertex="1">
          <mxGeometry x="200" y="670" width="130" height="60" as="geometry" />
        </mxCell>
        <mxCell id="w0jpCwDrPkgtgDR7SLwA-19" value="" style="endArrow=none;html=1;rounded=0;entryX=0.75;entryY=1;entryDx=0;entryDy=0;exitX=1;exitY=0.5;exitDx=0;exitDy=0;" parent="1" source="w0jpCwDrPkgtgDR7SLwA-18" target="w0jpCwDrPkgtgDR7SLwA-11" edge="1">
          <mxGeometry width="50" height="50" relative="1" as="geometry">
            <mxPoint x="460" y="570" as="sourcePoint" />
            <mxPoint x="510" y="520" as="targetPoint" />
            <Array as="points">
              <mxPoint x="768" y="700" />
            </Array>
          </mxGeometry>
        </mxCell>
        <mxCell id="w0jpCwDrPkgtgDR7SLwA-20" value="&lt;font style=&quot;font-size: 14px;&quot;&gt;3.2 : nuevaEntrevista(fecha : Date)&lt;/font&gt;" style="text;html=1;align=center;verticalAlign=middle;resizable=0;points=[];autosize=1;strokeColor=none;fillColor=none;" parent="1" vertex="1">
          <mxGeometry x="389" y="640" width="240" height="30" as="geometry" />
        </mxCell>
        <mxCell id="w0jpCwDrPkgtgDR7SLwA-21" value="" style="endArrow=classic;html=1;rounded=0;" parent="1" edge="1">
          <mxGeometry width="50" height="50" relative="1" as="geometry">
            <mxPoint x="558.5" y="680" as="sourcePoint" />
            <mxPoint x="449.5" y="680" as="targetPoint" />
          </mxGeometry>
        </mxCell>
        <mxCell id="gtyn4YNTbdpa8XgmJOK_-1" value="Devuelve TRUE si se ejecuta todo de manera correcta, FALSE en caso contrario" style="shape=note;whiteSpace=wrap;html=1;backgroundOutline=1;darkOpacity=0.05;fillColor=#fff2cc;strokeColor=#d6b656;" vertex="1" parent="1">
          <mxGeometry x="20" y="300" width="110" height="130" as="geometry" />
        </mxCell>
        <mxCell id="gtyn4YNTbdpa8XgmJOK_-2" value="" style="endArrow=none;dashed=1;html=1;rounded=0;entryX=0.088;entryY=1.02;entryDx=0;entryDy=0;entryPerimeter=0;exitX=0;exitY=0;exitDx=50;exitDy=0;exitPerimeter=0;" edge="1" parent="1" source="gtyn4YNTbdpa8XgmJOK_-1" target="NRPAvcOG6aAH4Mc26yKC-1">
          <mxGeometry width="50" height="50" relative="1" as="geometry">
            <mxPoint x="340" y="430" as="sourcePoint" />
            <mxPoint x="390" y="380" as="targetPoint" />
          </mxGeometry>
        </mxCell>
      </root>
    </mxGraphModel>
  </diagram>
</mxfile>
